<svg width="19" height="26" viewBox="0 0 19 26" fill="none" xmlns="http://www.w3.org/2000/svg">
<path d="M2.9532 12.8316H3.4532V12.3316V1.43911C3.4532 0.900015 3.86661 0.5 4.33178 0.5H11.7149C15.3588 0.5 18.4999 3.5719 18.5 7.60486C18.5 11.5426 15.4358 14.7098 11.7149 14.7098H5.71037H5.21037V15.2098V18.4974V18.9974H5.71037H11.7149C12.1801 18.9974 12.5935 19.3974 12.5935 19.9365C12.5935 20.4756 12.1801 20.8756 11.7149 20.8756H5.71037H5.21037V21.3756V24.5609C5.21037 25.1 4.79695 25.5 4.33178 25.5C3.86661 25.5 3.4532 25.1 3.4532 24.5609V21.3756V20.8756H2.9532H1.37858C0.913412 20.8756 0.5 20.4756 0.5 19.9365C0.5 19.3974 0.913412 18.9974 1.37858 18.9974H2.9532H3.4532V18.4974V15.2098V14.7098H2.9532H1.37858C0.913412 14.7098 0.5 14.3098 0.5 13.7707C0.5 13.2316 0.913412 12.8316 1.37858 12.8316H2.9532ZM5.21037 12.3316V12.8316H5.71037H11.7149C14.5078 12.8316 16.7427 10.467 16.7428 7.60497C16.7428 4.70888 14.4896 2.37823 11.7149 2.37823H5.71037H5.21037V2.87823V12.3316Z" fill="black" stroke="black"/>
</svg>
